<?xml version="1.0" encoding="UTF-8"?>
<svg viewBox="0 0 100 100" class="w-full h-full drop-shadow-2xl" xmlns="http://www.w3.org/2000/svg"><defs><filter id="drop-shadow" x="-20%" y="-20%" width="140%" height="140%"><feDropShadow dx="0" dy="4" stdDeviation="6" flood-color="#000000" flood-opacity="0.4"></feDropShadow></filter><filter id="glow" x="-20%" y="-20%" width="140%" height="140%"><feGaussianBlur stdDeviation="4" result="blur"></feGaussianBlur><feComposite in="SourceGraphic" in2="blur" operator="over"></feComposite></filter><linearGradient id="human-skin" x1="0%" y1="0%" x2="100%" y2="100%"><stop offset="0%" stop-color="#ffedd5"></stop><stop offset="100%" stop-color="#fdba74"></stop></linearGradient><linearGradient id="human-jacket" x1="0%" y1="0%" x2="100%" y2="100%"><stop offset="0%" stop-color="#ef4444"></stop><stop offset="100%" stop-color="#b91c1c"></stop></linearGradient><linearGradient id="human-pants" x1="0%" y1="0%" x2="100%" y2="100%"><stop offset="0%" stop-color="#3b82f6"></stop><stop offset="100%" stop-color="#1e40af"></stop></linearGradient><linearGradient id="human-hair" x1="0%" y1="0%" x2="0%" y2="100%"><stop offset="0%" stop-color="#fde047"></stop><stop offset="100%" stop-color="#d97706"></stop></linearGradient><linearGradient id="plat-green" x1="0%" y1="0%" x2="0%" y2="100%"><stop offset="0%" stop-color="#22c55e"></stop><stop offset="100%" stop-color="#14532d"></stop></linearGradient><linearGradient id="plat-blue" x1="0%" y1="0%" x2="0%" y2="100%"><stop offset="0%" stop-color="#3b82f6"></stop><stop offset="100%" stop-color="#1e3a8a"></stop></linearGradient><linearGradient id="plat-brown" x1="0%" y1="0%" x2="0%" y2="100%"><stop offset="0%" stop-color="#d97706"></stop><stop offset="100%" stop-color="#78350f"></stop></linearGradient><linearGradient id="metal" x1="0%" y1="0%" x2="100%" y2="100%"><stop offset="0%" stop-color="#f3f4f6"></stop><stop offset="50%" stop-color="#9ca3af"></stop><stop offset="100%" stop-color="#374151"></stop></linearGradient><linearGradient id="flame" x1="0%" y1="100%" x2="0%" y2="0%"><stop offset="0%" stop-color="#ef4444"></stop><stop offset="50%" stop-color="#f97316"></stop><stop offset="100%" stop-color="#fef08a"></stop></linearGradient><linearGradient id="ufo-glass" x1="0%" y1="0%" x2="0%" y2="100%"><stop offset="0%" stop-color="#93c5fd" stop-opacity="0.8"></stop><stop offset="100%" stop-color="#3b82f6" stop-opacity="0.3"></stop></linearGradient><radialGradient id="ufo-glow"><stop offset="0%" stop-color="#06b6d4"></stop><stop offset="100%" stop-color="#164e63"></stop></radialGradient></defs><radialGradient id="monster-skin" cx="35%" cy="35%" r="65%"><stop offset="0%" stop-color="#d946ef"></stop><stop offset="70%" stop-color="#9333ea"></stop><stop offset="100%" stop-color="#581c87"></stop></radialGradient><path d="M 30 65 Q 5 95 18 96 Q 35 85 40 65" fill="url(#monster-skin)" filter="url(#drop-shadow)"></path><path d="M 50 70 Q 45 105 55 100 Q 65 90 60 70" fill="url(#monster-skin)" filter="url(#drop-shadow)"></path><path d="M 70 65 Q 95 95 82 96 Q 65 85 60 65" fill="url(#monster-skin)" filter="url(#drop-shadow)"></path><polygon points="50,15 42,2 58,2" fill="#fbbf24" filter="url(#drop-shadow)"></polygon><polygon points="22,25 6,12 18,32" fill="#fbbf24" filter="url(#drop-shadow)"></polygon><polygon points="78,25 94,12 82,32" fill="#fbbf24" filter="url(#drop-shadow)"></polygon><circle cx="50" cy="48" r="32" fill="url(#monster-skin)" filter="url(#drop-shadow)"></circle><circle cx="40" cy="38" r="20" fill="#f5d0fe" opacity="0.3" filter="url(#glow)"></circle><circle cx="50" cy="42" r="14" fill="#ffffff" filter="url(#drop-shadow)"></circle><circle cx="50" cy="42" r="6" fill="#dc2626"></circle><circle cx="53" cy="39" r="2.5" fill="#ffffff"></circle><circle cx="28" cy="35" r="7" fill="#ffffff" filter="url(#drop-shadow)"></circle><circle cx="29" cy="35" r="3" fill="#ea580c"></circle><circle cx="30" cy="33" r="1.2" fill="#ffffff"></circle><circle cx="72" cy="35" r="7" fill="#ffffff" filter="url(#drop-shadow)"></circle><circle cx="71" cy="35" r="3" fill="#ea580c"></circle><circle cx="70" cy="33" r="1.2" fill="#ffffff"></circle><path d="M 35 62 Q 50 75 65 62 Z" fill="#3b0764" filter="url(#drop-shadow)"></path><path d="M 38 62 L 42 66 L 46 62 Z" fill="#ffffff"></path><path d="M 54 62 L 58 66 L 62 62 Z" fill="#ffffff"></path><path d="M 46 62 L 50 67 L 54 62 Z" fill="#ffffff"></path></svg>