<?xml version="1.0" encoding="UTF-8"?>
<svg viewBox="0 0 120 40" class="w-full h-full drop-shadow-xl" xmlns="http://www.w3.org/2000/svg"><defs><filter id="drop-shadow" x="-20%" y="-20%" width="140%" height="140%"><feDropShadow dx="0" dy="4" stdDeviation="6" flood-color="#000000" flood-opacity="0.4"></feDropShadow></filter><filter id="glow" x="-20%" y="-20%" width="140%" height="140%"><feGaussianBlur stdDeviation="4" result="blur"></feGaussianBlur><feComposite in="SourceGraphic" in2="blur" operator="over"></feComposite></filter><linearGradient id="human-skin" x1="0%" y1="0%" x2="100%" y2="100%"><stop offset="0%" stop-color="#ffedd5"></stop><stop offset="100%" stop-color="#fdba74"></stop></linearGradient><linearGradient id="human-jacket" x1="0%" y1="0%" x2="100%" y2="100%"><stop offset="0%" stop-color="#ef4444"></stop><stop offset="100%" stop-color="#b91c1c"></stop></linearGradient><linearGradient id="human-pants" x1="0%" y1="0%" x2="100%" y2="100%"><stop offset="0%" stop-color="#3b82f6"></stop><stop offset="100%" stop-color="#1e40af"></stop></linearGradient><linearGradient id="human-hair" x1="0%" y1="0%" x2="0%" y2="100%"><stop offset="0%" stop-color="#fde047"></stop><stop offset="100%" stop-color="#d97706"></stop></linearGradient><linearGradient id="plat-green" x1="0%" y1="0%" x2="0%" y2="100%"><stop offset="0%" stop-color="#22c55e"></stop><stop offset="100%" stop-color="#14532d"></stop></linearGradient><linearGradient id="plat-blue" x1="0%" y1="0%" x2="0%" y2="100%"><stop offset="0%" stop-color="#3b82f6"></stop><stop offset="100%" stop-color="#1e3a8a"></stop></linearGradient><linearGradient id="plat-brown" x1="0%" y1="0%" x2="0%" y2="100%"><stop offset="0%" stop-color="#d97706"></stop><stop offset="100%" stop-color="#78350f"></stop></linearGradient><linearGradient id="metal" x1="0%" y1="0%" x2="100%" y2="100%"><stop offset="0%" stop-color="#f3f4f6"></stop><stop offset="50%" stop-color="#9ca3af"></stop><stop offset="100%" stop-color="#374151"></stop></linearGradient><linearGradient id="flame" x1="0%" y1="100%" x2="0%" y2="0%"><stop offset="0%" stop-color="#ef4444"></stop><stop offset="50%" stop-color="#f97316"></stop><stop offset="100%" stop-color="#fef08a"></stop></linearGradient><linearGradient id="ufo-glass" x1="0%" y1="0%" x2="0%" y2="100%"><stop offset="0%" stop-color="#93c5fd" stop-opacity="0.8"></stop><stop offset="100%" stop-color="#3b82f6" stop-opacity="0.3"></stop></linearGradient><radialGradient id="ufo-glow"><stop offset="0%" stop-color="#06b6d4"></stop><stop offset="100%" stop-color="#164e63"></stop></radialGradient></defs><g transform="rotate(-15, 30, 20) translate(-8, 5)"><path d="M 10 10 L 50 10 L 45 20 L 55 30 L 10 30 Q 0 30 0 20 Q 0 10 10 10 Z" fill="url(#plat-brown)" filter="url(#drop-shadow)"></path><path d="M 14 12 L 48 12 L 43 18 L 14 18 Q 4 18 4 15 Q 4 12 14 12 Z" fill="#fcd34d" opacity="0.4"></path></g><g transform="rotate(20, 90, 20) translate(8, 12)"><path d="M 60 10 L 110 10 Q 120 10 120 20 Q 120 30 110 30 L 70 30 L 65 20 Z" fill="url(#plat-brown)" filter="url(#drop-shadow)"></path><path d="M 62 12 L 108 12 Q 116 12 116 15 Q 116 18 108 18 L 68 18 L 65 15 Z" fill="#fcd34d" opacity="0.4"></path></g></svg>