<?xml version="1.0" encoding="UTF-8"?>
<svg viewBox="0 0 400 600" class="w-full h-full drop-shadow-2xl" xmlns="http://www.w3.org/2000/svg"><defs><filter id="drop-shadow" x="-20%" y="-20%" width="140%" height="140%"><feDropShadow dx="0" dy="4" stdDeviation="6" flood-color="#000000" flood-opacity="0.4"></feDropShadow></filter><filter id="glow" x="-20%" y="-20%" width="140%" height="140%"><feGaussianBlur stdDeviation="4" result="blur"></feGaussianBlur><feComposite in="SourceGraphic" in2="blur" operator="over"></feComposite></filter><linearGradient id="human-skin" x1="0%" y1="0%" x2="100%" y2="100%"><stop offset="0%" stop-color="#ffedd5"></stop><stop offset="100%" stop-color="#fdba74"></stop></linearGradient><linearGradient id="human-jacket" x1="0%" y1="0%" x2="100%" y2="100%"><stop offset="0%" stop-color="#ef4444"></stop><stop offset="100%" stop-color="#b91c1c"></stop></linearGradient><linearGradient id="human-pants" x1="0%" y1="0%" x2="100%" y2="100%"><stop offset="0%" stop-color="#3b82f6"></stop><stop offset="100%" stop-color="#1e40af"></stop></linearGradient><linearGradient id="human-hair" x1="0%" y1="0%" x2="0%" y2="100%"><stop offset="0%" stop-color="#fde047"></stop><stop offset="100%" stop-color="#d97706"></stop></linearGradient><linearGradient id="plat-green" x1="0%" y1="0%" x2="0%" y2="100%"><stop offset="0%" stop-color="#22c55e"></stop><stop offset="100%" stop-color="#14532d"></stop></linearGradient><linearGradient id="plat-blue" x1="0%" y1="0%" x2="0%" y2="100%"><stop offset="0%" stop-color="#3b82f6"></stop><stop offset="100%" stop-color="#1e3a8a"></stop></linearGradient><linearGradient id="plat-brown" x1="0%" y1="0%" x2="0%" y2="100%"><stop offset="0%" stop-color="#d97706"></stop><stop offset="100%" stop-color="#78350f"></stop></linearGradient><linearGradient id="metal" x1="0%" y1="0%" x2="100%" y2="100%"><stop offset="0%" stop-color="#f3f4f6"></stop><stop offset="50%" stop-color="#9ca3af"></stop><stop offset="100%" stop-color="#374151"></stop></linearGradient><linearGradient id="flame" x1="0%" y1="100%" x2="0%" y2="0%"><stop offset="0%" stop-color="#ef4444"></stop><stop offset="50%" stop-color="#f97316"></stop><stop offset="100%" stop-color="#fef08a"></stop></linearGradient><linearGradient id="ufo-glass" x1="0%" y1="0%" x2="0%" y2="100%"><stop offset="0%" stop-color="#93c5fd" stop-opacity="0.8"></stop><stop offset="100%" stop-color="#3b82f6" stop-opacity="0.3"></stop></linearGradient><radialGradient id="ufo-glow"><stop offset="0%" stop-color="#06b6d4"></stop><stop offset="100%" stop-color="#164e63"></stop></radialGradient></defs><defs><radialGradient id="bg-glow" cx="50%" cy="50%" r="70%"><stop offset="0%" stop-color="#1e1b4b"></stop><stop offset="100%" stop-color="#020617"></stop></radialGradient><pattern id="grid-pattern" width="40" height="40" patternUnits="userSpaceOnUse"><path d="M 40 0 L 0 0 0 40" fill="none" stroke="#312e81" stroke-width="1.5" opacity="0.6"></path><circle cx="0" cy="0" r="1.5" fill="#6366f1" opacity="0.8"></circle></pattern></defs><rect width="400" height="600" fill="url(#bg-glow)"></rect><rect width="400" height="600" fill="url(#grid-pattern)"></rect><rect width="400" height="600" fill="none" stroke="#000000" stroke-width="12" opacity="0.6"></rect><path d="M 20 20 L 60 20 M 20 20 L 20 60" fill="none" stroke="#818cf8" stroke-width="2" opacity="0.8"></path><path d="M 380 20 L 340 20 M 380 20 L 380 60" fill="none" stroke="#818cf8" stroke-width="2" opacity="0.8"></path><path d="M 20 580 L 60 580 M 20 580 L 20 540" fill="none" stroke="#818cf8" stroke-width="2" opacity="0.8"></path><path d="M 380 580 L 340 580 M 380 580 L 380 540" fill="none" stroke="#818cf8" stroke-width="2" opacity="0.8"></path><circle cx="80" cy="120" r="80" fill="#4f46e5" filter="url(#glow)" opacity="0.15"></circle><circle cx="320" cy="480" r="100" fill="#c026d3" filter="url(#glow)" opacity="0.1"></circle><circle cx="200" cy="300" r="120" fill="#2563eb" filter="url(#glow)" opacity="0.05"></circle></svg>