<?xml version="1.0" encoding="UTF-8"?>
<svg viewBox="0 0 400 600" class="w-full h-full drop-shadow-2xl" xmlns="http://www.w3.org/2000/svg"><defs><filter id="drop-shadow" x="-20%" y="-20%" width="140%" height="140%"><feDropShadow dx="0" dy="4" stdDeviation="6" flood-color="#000000" flood-opacity="0.4"></feDropShadow></filter><filter id="glow" x="-20%" y="-20%" width="140%" height="140%"><feGaussianBlur stdDeviation="4" result="blur"></feGaussianBlur><feComposite in="SourceGraphic" in2="blur" operator="over"></feComposite></filter><linearGradient id="human-skin" x1="0%" y1="0%" x2="100%" y2="100%"><stop offset="0%" stop-color="#ffedd5"></stop><stop offset="100%" stop-color="#fdba74"></stop></linearGradient><linearGradient id="human-jacket" x1="0%" y1="0%" x2="100%" y2="100%"><stop offset="0%" stop-color="#ef4444"></stop><stop offset="100%" stop-color="#b91c1c"></stop></linearGradient><linearGradient id="human-pants" x1="0%" y1="0%" x2="100%" y2="100%"><stop offset="0%" stop-color="#3b82f6"></stop><stop offset="100%" stop-color="#1e40af"></stop></linearGradient><linearGradient id="human-hair" x1="0%" y1="0%" x2="0%" y2="100%"><stop offset="0%" stop-color="#fde047"></stop><stop offset="100%" stop-color="#d97706"></stop></linearGradient><linearGradient id="plat-green" x1="0%" y1="0%" x2="0%" y2="100%"><stop offset="0%" stop-color="#22c55e"></stop><stop offset="100%" stop-color="#14532d"></stop></linearGradient><linearGradient id="plat-blue" x1="0%" y1="0%" x2="0%" y2="100%"><stop offset="0%" stop-color="#3b82f6"></stop><stop offset="100%" stop-color="#1e3a8a"></stop></linearGradient><linearGradient id="plat-brown" x1="0%" y1="0%" x2="0%" y2="100%"><stop offset="0%" stop-color="#d97706"></stop><stop offset="100%" stop-color="#78350f"></stop></linearGradient><linearGradient id="metal" x1="0%" y1="0%" x2="100%" y2="100%"><stop offset="0%" stop-color="#f3f4f6"></stop><stop offset="50%" stop-color="#9ca3af"></stop><stop offset="100%" stop-color="#374151"></stop></linearGradient><linearGradient id="flame" x1="0%" y1="100%" x2="0%" y2="0%"><stop offset="0%" stop-color="#ef4444"></stop><stop offset="50%" stop-color="#f97316"></stop><stop offset="100%" stop-color="#fef08a"></stop></linearGradient><linearGradient id="ufo-glass" x1="0%" y1="0%" x2="0%" y2="100%"><stop offset="0%" stop-color="#93c5fd" stop-opacity="0.8"></stop><stop offset="100%" stop-color="#3b82f6" stop-opacity="0.3"></stop></linearGradient><radialGradient id="ufo-glow"><stop offset="0%" stop-color="#06b6d4"></stop><stop offset="100%" stop-color="#164e63"></stop></radialGradient></defs><defs><linearGradient id="day-glow" x1="0%" y1="0%" x2="0%" y2="100%"><stop offset="0%" stop-color="#38bdf8"></stop>  <stop offset="60%" stop-color="#bae6fd"></stop> <stop offset="100%" stop-color="#fdf4ff"></stop> </linearGradient><pattern id="day-grid-pattern" width="40" height="40" patternUnits="userSpaceOnUse"><path d="M 40 0 L 0 0 0 40" fill="none" stroke="#ffffff" stroke-width="1.5" opacity="0.3"></path><circle cx="0" cy="0" r="1.5" fill="#f8fafc" opacity="0.5"></circle></pattern><filter id="cloud-fluff" x="-20%" y="-20%" width="140%" height="140%"><feGaussianBlur stdDeviation="6" result="blur"></feGaussianBlur><feComposite in="SourceGraphic" in2="blur" operator="over"></feComposite></filter></defs><rect width="400" height="600" fill="url(#day-glow)"></rect><circle cx="200" cy="150" r="120" fill="#fde047" opacity="0.2" filter="url(#glow)"></circle><circle cx="200" cy="150" r="60" fill="#fef08a" opacity="0.4" filter="url(#glow)"></circle><circle cx="200" cy="150" r="30" fill="#ffffff" filter="url(#glow)"></circle><g opacity="0.8" fill="#ffffff" filter="url(#cloud-fluff)"><circle cx="80" cy="400" r="40"></circle><circle cx="130" cy="420" r="30"></circle><circle cx="50" cy="420" r="25"></circle><rect x="50" y="400" width="80" height="40" rx="20"></rect></g><g opacity="0.6" fill="#ffffff" filter="url(#cloud-fluff)"><circle cx="320" cy="250" r="35"></circle><circle cx="280" cy="270" r="25"></circle><circle cx="350" cy="265" r="20"></circle><rect x="280" y="250" width="70" height="35" rx="17.5"></rect></g><g opacity="0.4" fill="#ffffff" filter="url(#cloud-fluff)"><circle cx="100" cy="100" r="25"></circle><circle cx="130" cy="110" r="18"></circle><circle cx="75" cy="110" r="15"></circle></g><rect width="400" height="600" fill="url(#day-grid-pattern)"></rect><rect width="400" height="600" fill="none" stroke="#0ea5e9" stroke-width="12" opacity="0.2"></rect><path d="M 20 20 L 60 20 M 20 20 L 20 60" fill="none" stroke="#ffffff" stroke-width="3" opacity="0.7"></path><path d="M 380 20 L 340 20 M 380 20 L 380 60" fill="none" stroke="#ffffff" stroke-width="3" opacity="0.7"></path><path d="M 20 580 L 60 580 M 20 580 L 20 540" fill="none" stroke="#ffffff" stroke-width="3" opacity="0.7"></path><path d="M 380 580 L 340 580 M 380 580 L 380 540" fill="none" stroke="#ffffff" stroke-width="3" opacity="0.7"></path></svg>