<?xml version="1.0" encoding="UTF-8"?>
<svg viewBox="0 0 100 100" class="w-full h-full drop-shadow-xl" xmlns="http://www.w3.org/2000/svg"><defs><filter id="drop-shadow" x="-20%" y="-20%" width="140%" height="140%"><feDropShadow dx="0" dy="4" stdDeviation="6" flood-color="#000000" flood-opacity="0.4"></feDropShadow></filter><filter id="glow" x="-20%" y="-20%" width="140%" height="140%"><feGaussianBlur stdDeviation="4" result="blur"></feGaussianBlur><feComposite in="SourceGraphic" in2="blur" operator="over"></feComposite></filter><linearGradient id="human-skin" x1="0%" y1="0%" x2="100%" y2="100%"><stop offset="0%" stop-color="#ffedd5"></stop><stop offset="100%" stop-color="#fdba74"></stop></linearGradient><linearGradient id="human-jacket" x1="0%" y1="0%" x2="100%" y2="100%"><stop offset="0%" stop-color="#ef4444"></stop><stop offset="100%" stop-color="#b91c1c"></stop></linearGradient><linearGradient id="human-pants" x1="0%" y1="0%" x2="100%" y2="100%"><stop offset="0%" stop-color="#3b82f6"></stop><stop offset="100%" stop-color="#1e40af"></stop></linearGradient><linearGradient id="human-hair" x1="0%" y1="0%" x2="0%" y2="100%"><stop offset="0%" stop-color="#fde047"></stop><stop offset="100%" stop-color="#d97706"></stop></linearGradient><linearGradient id="plat-green" x1="0%" y1="0%" x2="0%" y2="100%"><stop offset="0%" stop-color="#22c55e"></stop><stop offset="100%" stop-color="#14532d"></stop></linearGradient><linearGradient id="plat-blue" x1="0%" y1="0%" x2="0%" y2="100%"><stop offset="0%" stop-color="#3b82f6"></stop><stop offset="100%" stop-color="#1e3a8a"></stop></linearGradient><linearGradient id="plat-brown" x1="0%" y1="0%" x2="0%" y2="100%"><stop offset="0%" stop-color="#d97706"></stop><stop offset="100%" stop-color="#78350f"></stop></linearGradient><linearGradient id="metal" x1="0%" y1="0%" x2="100%" y2="100%"><stop offset="0%" stop-color="#f3f4f6"></stop><stop offset="50%" stop-color="#9ca3af"></stop><stop offset="100%" stop-color="#374151"></stop></linearGradient><linearGradient id="flame" x1="0%" y1="100%" x2="0%" y2="0%"><stop offset="0%" stop-color="#ef4444"></stop><stop offset="50%" stop-color="#f97316"></stop><stop offset="100%" stop-color="#fef08a"></stop></linearGradient><linearGradient id="ufo-glass" x1="0%" y1="0%" x2="0%" y2="100%"><stop offset="0%" stop-color="#93c5fd" stop-opacity="0.8"></stop><stop offset="100%" stop-color="#3b82f6" stop-opacity="0.3"></stop></linearGradient><radialGradient id="ufo-glow"><stop offset="0%" stop-color="#06b6d4"></stop><stop offset="100%" stop-color="#164e63"></stop></radialGradient></defs><path d="M 30 20 L 10 32 L 10 75 L 30 65" fill="none" stroke="#1f2937" stroke-width="8" stroke-linecap="round" stroke-linejoin="round" filter="url(#drop-shadow)"></path><path d="M 70 20 L 90 32 L 90 75 L 70 65" fill="none" stroke="#1f2937" stroke-width="8" stroke-linecap="round" stroke-linejoin="round" filter="url(#drop-shadow)"></path><path d="M 22 80 Q 30 115 38 80 Q 30 65 22 80 Z" fill="url(#flame)" filter="url(#glow)"></path><path d="M 62 80 Q 70 115 78 80 Q 70 65 62 80 Z" fill="url(#flame)" filter="url(#glow)"></path><path d="M 26 80 L 30 100 L 34 80 Z" fill="#ffffff" filter="url(#glow)"></path><path d="M 66 80 L 70 100 L 74 80 Z" fill="#ffffff" filter="url(#glow)"></path><rect x="18" y="15" width="28" height="68" rx="14" fill="url(#metal)" filter="url(#drop-shadow)"></rect><rect x="54" y="15" width="28" height="68" rx="14" fill="url(#metal)" filter="url(#drop-shadow)"></rect><rect x="22" y="20" width="8" height="58" rx="4" fill="#ffffff" opacity="0.5"></rect><rect x="58" y="20" width="8" height="58" rx="4" fill="#ffffff" opacity="0.5"></rect><rect x="18" y="30" width="28" height="6" fill="#dc2626"></rect><rect x="54" y="30" width="28" height="6" fill="#dc2626"></rect><rect x="18" y="60" width="28" height="6" fill="#dc2626"></rect><rect x="54" y="60" width="28" height="6" fill="#dc2626"></rect><rect x="38" y="40" width="24" height="18" rx="2" fill="#374151" filter="url(#drop-shadow)"></rect><rect x="42" y="44" width="16" height="4" fill="#111827" rx="1"></rect><rect x="42" y="50" width="16" height="4" fill="#111827" rx="1"></rect><path d="M 21 82 L 43 82 L 38 92 L 26 92 Z" fill="#1f2937" filter="url(#drop-shadow)"></path><path d="M 57 82 L 79 82 L 74 92 L 62 92 Z" fill="#1f2937" filter="url(#drop-shadow)"></path></svg>