<?xml version="1.0" encoding="UTF-8"?>
<svg viewBox="0 0 100 100" class="w-full h-full drop-shadow-2xl" xmlns="http://www.w3.org/2000/svg"><defs><filter id="drop-shadow" x="-20%" y="-20%" width="140%" height="140%"><feDropShadow dx="0" dy="4" stdDeviation="6" flood-color="#000000" flood-opacity="0.4"></feDropShadow></filter><filter id="glow" x="-20%" y="-20%" width="140%" height="140%"><feGaussianBlur stdDeviation="4" result="blur"></feGaussianBlur><feComposite in="SourceGraphic" in2="blur" operator="over"></feComposite></filter><linearGradient id="human-skin" x1="0%" y1="0%" x2="100%" y2="100%"><stop offset="0%" stop-color="#ffedd5"></stop><stop offset="100%" stop-color="#fdba74"></stop></linearGradient><linearGradient id="human-jacket" x1="0%" y1="0%" x2="100%" y2="100%"><stop offset="0%" stop-color="#ef4444"></stop><stop offset="100%" stop-color="#b91c1c"></stop></linearGradient><linearGradient id="human-pants" x1="0%" y1="0%" x2="100%" y2="100%"><stop offset="0%" stop-color="#3b82f6"></stop><stop offset="100%" stop-color="#1e40af"></stop></linearGradient><linearGradient id="human-hair" x1="0%" y1="0%" x2="0%" y2="100%"><stop offset="0%" stop-color="#fde047"></stop><stop offset="100%" stop-color="#d97706"></stop></linearGradient><linearGradient id="plat-green" x1="0%" y1="0%" x2="0%" y2="100%"><stop offset="0%" stop-color="#22c55e"></stop><stop offset="100%" stop-color="#14532d"></stop></linearGradient><linearGradient id="plat-blue" x1="0%" y1="0%" x2="0%" y2="100%"><stop offset="0%" stop-color="#3b82f6"></stop><stop offset="100%" stop-color="#1e3a8a"></stop></linearGradient><linearGradient id="plat-brown" x1="0%" y1="0%" x2="0%" y2="100%"><stop offset="0%" stop-color="#d97706"></stop><stop offset="100%" stop-color="#78350f"></stop></linearGradient><linearGradient id="metal" x1="0%" y1="0%" x2="100%" y2="100%"><stop offset="0%" stop-color="#f3f4f6"></stop><stop offset="50%" stop-color="#9ca3af"></stop><stop offset="100%" stop-color="#374151"></stop></linearGradient><linearGradient id="flame" x1="0%" y1="100%" x2="0%" y2="0%"><stop offset="0%" stop-color="#ef4444"></stop><stop offset="50%" stop-color="#f97316"></stop><stop offset="100%" stop-color="#fef08a"></stop></linearGradient><linearGradient id="ufo-glass" x1="0%" y1="0%" x2="0%" y2="100%"><stop offset="0%" stop-color="#93c5fd" stop-opacity="0.8"></stop><stop offset="100%" stop-color="#3b82f6" stop-opacity="0.3"></stop></linearGradient><radialGradient id="ufo-glow"><stop offset="0%" stop-color="#06b6d4"></stop><stop offset="100%" stop-color="#164e63"></stop></radialGradient></defs><path d="M 40 70 L 40 96" fill="none" stroke="url(#human-pants)" stroke-width="10" stroke-linecap="round" stroke-linejoin="round" filter="url(#drop-shadow)"></path><path d="M 60 70 L 60 96" fill="none" stroke="url(#human-pants)" stroke-width="10" stroke-linecap="round" stroke-linejoin="round" filter="url(#drop-shadow)"></path><rect x="35" y="90" width="10" height="10" rx="3" fill="url(#metal)" filter="url(#drop-shadow)"></rect><rect x="55" y="90" width="10" height="10" rx="3" fill="url(#metal)" filter="url(#drop-shadow)"></rect><path d="M 65 48 L 75 40 L 80 30" fill="none" stroke="url(#human-jacket)" stroke-width="9" stroke-linecap="round" stroke-linejoin="round" filter="url(#drop-shadow)"></path><rect x="34" y="40" width="32" height="34" rx="12" fill="url(#human-jacket)" filter="url(#drop-shadow)"></rect><rect x="46" y="40" width="8" height="34" fill="#fca5a5" opacity="0.3"></rect><path d="M 35 48 L 25 40 L 20 30" fill="none" stroke="url(#human-jacket)" stroke-width="9" stroke-linecap="round" stroke-linejoin="round" filter="url(#drop-shadow)"></path><circle cx="50" cy="26" r="16" fill="url(#human-skin)" filter="url(#drop-shadow)"></circle><path d="M 34 24 Q 50 -2 66 24 Q 50 15 34 24 Z" fill="url(#human-hair)" filter="url(#drop-shadow)"></path><path d="M 36 26 L 40 8 L 45 16 L 50 6 L 55 16 L 60 8 L 64 26 Z" fill="url(#human-hair)"></path><rect x="34" y="20" width="32" height="12" rx="5" fill="#1e293b" filter="url(#drop-shadow)"></rect><rect x="36" y="21" width="14" height="10" rx="3" fill="url(#ufo-glass)"></rect><rect x="50" y="21" width="14" height="10" rx="3" fill="url(#ufo-glass)"></rect><circle cx="50" cy="37" r="3" fill="#ea580c"></circle></svg>