<?xml version="1.0" encoding="UTF-8"?>
<svg viewBox="0 0 100 100" class="w-full h-full drop-shadow-xl" xmlns="http://www.w3.org/2000/svg"><defs><filter id="drop-shadow" x="-20%" y="-20%" width="140%" height="140%"><feDropShadow dx="0" dy="4" stdDeviation="6" flood-color="#000000" flood-opacity="0.4"></feDropShadow></filter><filter id="glow" x="-20%" y="-20%" width="140%" height="140%"><feGaussianBlur stdDeviation="4" result="blur"></feGaussianBlur><feComposite in="SourceGraphic" in2="blur" operator="over"></feComposite></filter><linearGradient id="human-skin" x1="0%" y1="0%" x2="100%" y2="100%"><stop offset="0%" stop-color="#ffedd5"></stop><stop offset="100%" stop-color="#fdba74"></stop></linearGradient><linearGradient id="human-jacket" x1="0%" y1="0%" x2="100%" y2="100%"><stop offset="0%" stop-color="#ef4444"></stop><stop offset="100%" stop-color="#b91c1c"></stop></linearGradient><linearGradient id="human-pants" x1="0%" y1="0%" x2="100%" y2="100%"><stop offset="0%" stop-color="#3b82f6"></stop><stop offset="100%" stop-color="#1e40af"></stop></linearGradient><linearGradient id="human-hair" x1="0%" y1="0%" x2="0%" y2="100%"><stop offset="0%" stop-color="#fde047"></stop><stop offset="100%" stop-color="#d97706"></stop></linearGradient><linearGradient id="plat-green" x1="0%" y1="0%" x2="0%" y2="100%"><stop offset="0%" stop-color="#22c55e"></stop><stop offset="100%" stop-color="#14532d"></stop></linearGradient><linearGradient id="plat-blue" x1="0%" y1="0%" x2="0%" y2="100%"><stop offset="0%" stop-color="#3b82f6"></stop><stop offset="100%" stop-color="#1e3a8a"></stop></linearGradient><linearGradient id="plat-brown" x1="0%" y1="0%" x2="0%" y2="100%"><stop offset="0%" stop-color="#d97706"></stop><stop offset="100%" stop-color="#78350f"></stop></linearGradient><linearGradient id="metal" x1="0%" y1="0%" x2="100%" y2="100%"><stop offset="0%" stop-color="#f3f4f6"></stop><stop offset="50%" stop-color="#9ca3af"></stop><stop offset="100%" stop-color="#374151"></stop></linearGradient><linearGradient id="flame" x1="0%" y1="100%" x2="0%" y2="0%"><stop offset="0%" stop-color="#ef4444"></stop><stop offset="50%" stop-color="#f97316"></stop><stop offset="100%" stop-color="#fef08a"></stop></linearGradient><linearGradient id="ufo-glass" x1="0%" y1="0%" x2="0%" y2="100%"><stop offset="0%" stop-color="#93c5fd" stop-opacity="0.8"></stop><stop offset="100%" stop-color="#3b82f6" stop-opacity="0.3"></stop></linearGradient><radialGradient id="ufo-glow"><stop offset="0%" stop-color="#06b6d4"></stop><stop offset="100%" stop-color="#164e63"></stop></radialGradient></defs><circle cx="50" cy="65" r="20" fill="url(#monster-skin)" filter="url(#drop-shadow)" opacity="0.8"></circle><path d="M 35 75 Q 25 85 30 95" fill="none" stroke="url(#monster-skin)" stroke-width="6" stroke-linecap="round" opacity="0.8"></path><path d="M 50 80 L 50 98" fill="none" stroke="url(#monster-skin)" stroke-width="6" stroke-linecap="round" opacity="0.8"></path><path d="M 65 75 Q 75 85 70 95" fill="none" stroke="url(#monster-skin)" stroke-width="6" stroke-linecap="round" opacity="0.8"></path><polygon points="53,45 45,40 57,36" fill="#fbbf24" filter="url(#drop-shadow)" opacity="0.7"></polygon><polygon points="33,52 25,45 35,42" fill="#fbbf24" filter="url(#drop-shadow)" opacity="0.7"></polygon><polygon points="67,52 75,45 65,42" fill="#fbbf24" filter="url(#drop-shadow)" opacity="0.7"></polygon><circle cx="50" cy="60" r="10" fill="#ffffff" filter="url(#drop-shadow)" opacity="0.9"></circle><path d="M 45 55 L 55 65 M 55 55 L 45 65" stroke="#ef4444" stroke-width="2.5" stroke-linecap="round"></path><circle cx="36" cy="55" r="5" fill="#ffffff" filter="url(#drop-shadow)" opacity="0.9"></circle><path d="M 34 53 L 38 57 M 38 53 L 34 57" stroke="#ef4444" stroke-width="1.5" stroke-linecap="round"></path><circle cx="64" cy="55" r="5" fill="#ffffff" filter="url(#drop-shadow)" opacity="0.9"></circle><path d="M 62 53 L 66 57 M 66 53 L 62 57" stroke="#ef4444" stroke-width="1.5" stroke-linecap="round"></path><path d="M 50 20 L 50 10 M 20 50 L 10 50 M 80 50 L 90 50 M 30 30 L 20 20 M 70 30 L 80 20" stroke="#f5d0fe" stroke-width="3" stroke-linecap="round" filter="url(#glow)" opacity="0.8"></path></svg>