<?xml version="1.0" encoding="UTF-8"?>
<svg viewBox="0 0 100 100" class="w-full h-full drop-shadow-2xl" xmlns="http://www.w3.org/2000/svg"><defs><filter id="drop-shadow" x="-20%" y="-20%" width="140%" height="140%"><feDropShadow dx="0" dy="4" stdDeviation="6" flood-color="#000000" flood-opacity="0.4"></feDropShadow></filter><filter id="glow" x="-20%" y="-20%" width="140%" height="140%"><feGaussianBlur stdDeviation="4" result="blur"></feGaussianBlur><feComposite in="SourceGraphic" in2="blur" operator="over"></feComposite></filter><linearGradient id="human-skin" x1="0%" y1="0%" x2="100%" y2="100%"><stop offset="0%" stop-color="#ffedd5"></stop><stop offset="100%" stop-color="#fdba74"></stop></linearGradient><linearGradient id="human-jacket" x1="0%" y1="0%" x2="100%" y2="100%"><stop offset="0%" stop-color="#ef4444"></stop><stop offset="100%" stop-color="#b91c1c"></stop></linearGradient><linearGradient id="human-pants" x1="0%" y1="0%" x2="100%" y2="100%"><stop offset="0%" stop-color="#3b82f6"></stop><stop offset="100%" stop-color="#1e40af"></stop></linearGradient><linearGradient id="human-hair" x1="0%" y1="0%" x2="0%" y2="100%"><stop offset="0%" stop-color="#fde047"></stop><stop offset="100%" stop-color="#d97706"></stop></linearGradient><linearGradient id="plat-green" x1="0%" y1="0%" x2="0%" y2="100%"><stop offset="0%" stop-color="#22c55e"></stop><stop offset="100%" stop-color="#14532d"></stop></linearGradient><linearGradient id="plat-blue" x1="0%" y1="0%" x2="0%" y2="100%"><stop offset="0%" stop-color="#3b82f6"></stop><stop offset="100%" stop-color="#1e3a8a"></stop></linearGradient><linearGradient id="plat-brown" x1="0%" y1="0%" x2="0%" y2="100%"><stop offset="0%" stop-color="#d97706"></stop><stop offset="100%" stop-color="#78350f"></stop></linearGradient><linearGradient id="metal" x1="0%" y1="0%" x2="100%" y2="100%"><stop offset="0%" stop-color="#f3f4f6"></stop><stop offset="50%" stop-color="#9ca3af"></stop><stop offset="100%" stop-color="#374151"></stop></linearGradient><linearGradient id="flame" x1="0%" y1="100%" x2="0%" y2="0%"><stop offset="0%" stop-color="#ef4444"></stop><stop offset="50%" stop-color="#f97316"></stop><stop offset="100%" stop-color="#fef08a"></stop></linearGradient><linearGradient id="ufo-glass" x1="0%" y1="0%" x2="0%" y2="100%"><stop offset="0%" stop-color="#93c5fd" stop-opacity="0.8"></stop><stop offset="100%" stop-color="#3b82f6" stop-opacity="0.3"></stop></linearGradient><radialGradient id="ufo-glow"><stop offset="0%" stop-color="#06b6d4"></stop><stop offset="100%" stop-color="#164e63"></stop></radialGradient></defs><g transform="rotate(-45, 50, 50)"><path d="M 50 50 Q 30 70 10 90 Q 20 80 50 60 Z" fill="#facc15" opacity="0.4" filter="url(#glow)"></path><path d="M 50 50 Q 40 60 20 80 Q 30 70 50 55 Z" fill="#ffffff" opacity="0.6"></path><circle cx="60" cy="40" r="12" fill="#facc15" filter="url(#glow)"></circle><circle cx="62" cy="38" r="6" fill="#ffffff"></circle><circle cx="75" cy="25" r="2" fill="#ffffff" filter="url(#glow)"></circle><circle cx="45" cy="28" r="1.5" fill="#facc15" filter="url(#glow)"></circle><circle cx="70" cy="55" r="2.5" fill="#facc15" filter="url(#glow)"></circle></g></svg>