<?xml version="1.0" encoding="UTF-8"?>
<svg viewBox="0 0 100 100" class="w-full h-full drop-shadow-xl" xmlns="http://www.w3.org/2000/svg"><defs><filter id="drop-shadow" x="-20%" y="-20%" width="140%" height="140%"><feDropShadow dx="0" dy="4" stdDeviation="6" flood-color="#000000" flood-opacity="0.4"></feDropShadow></filter><filter id="glow" x="-20%" y="-20%" width="140%" height="140%"><feGaussianBlur stdDeviation="4" result="blur"></feGaussianBlur><feComposite in="SourceGraphic" in2="blur" operator="over"></feComposite></filter><linearGradient id="human-skin" x1="0%" y1="0%" x2="100%" y2="100%"><stop offset="0%" stop-color="#ffedd5"></stop><stop offset="100%" stop-color="#fdba74"></stop></linearGradient><linearGradient id="human-jacket" x1="0%" y1="0%" x2="100%" y2="100%"><stop offset="0%" stop-color="#ef4444"></stop><stop offset="100%" stop-color="#b91c1c"></stop></linearGradient><linearGradient id="human-pants" x1="0%" y1="0%" x2="100%" y2="100%"><stop offset="0%" stop-color="#3b82f6"></stop><stop offset="100%" stop-color="#1e40af"></stop></linearGradient><linearGradient id="human-hair" x1="0%" y1="0%" x2="0%" y2="100%"><stop offset="0%" stop-color="#fde047"></stop><stop offset="100%" stop-color="#d97706"></stop></linearGradient><linearGradient id="plat-green" x1="0%" y1="0%" x2="0%" y2="100%"><stop offset="0%" stop-color="#22c55e"></stop><stop offset="100%" stop-color="#14532d"></stop></linearGradient><linearGradient id="plat-blue" x1="0%" y1="0%" x2="0%" y2="100%"><stop offset="0%" stop-color="#3b82f6"></stop><stop offset="100%" stop-color="#1e3a8a"></stop></linearGradient><linearGradient id="plat-brown" x1="0%" y1="0%" x2="0%" y2="100%"><stop offset="0%" stop-color="#d97706"></stop><stop offset="100%" stop-color="#78350f"></stop></linearGradient><linearGradient id="metal" x1="0%" y1="0%" x2="100%" y2="100%"><stop offset="0%" stop-color="#f3f4f6"></stop><stop offset="50%" stop-color="#9ca3af"></stop><stop offset="100%" stop-color="#374151"></stop></linearGradient><linearGradient id="flame" x1="0%" y1="100%" x2="0%" y2="0%"><stop offset="0%" stop-color="#ef4444"></stop><stop offset="50%" stop-color="#f97316"></stop><stop offset="100%" stop-color="#fef08a"></stop></linearGradient><linearGradient id="ufo-glass" x1="0%" y1="0%" x2="0%" y2="100%"><stop offset="0%" stop-color="#93c5fd" stop-opacity="0.8"></stop><stop offset="100%" stop-color="#3b82f6" stop-opacity="0.3"></stop></linearGradient><radialGradient id="ufo-glow"><stop offset="0%" stop-color="#06b6d4"></stop><stop offset="100%" stop-color="#164e63"></stop></radialGradient></defs><path d="M 20 60 Q 50 25 80 60 L 95 65 Q 50 78 5 65 Z" fill="#2563eb" filter="url(#drop-shadow)"></path><path d="M 25 58 Q 50 32 75 58 Q 50 67 25 58 Z" fill="#60a5fa" opacity="0.7"></path><path d="M 20 60 Q 50 25 80 60 L 95 65 Q 50 78 5 65 Z" fill="none" stroke="#1e3a8a" stroke-width="2"></path><rect x="46" y="12" width="8" height="35" rx="4" fill="url(#metal)" filter="url(#drop-shadow)"></rect><rect x="48" y="14" width="2" height="30" fill="#ffffff" opacity="0.6"></rect><ellipse cx="50" cy="20" rx="38" ry="9" fill="#f59e0b" filter="url(#drop-shadow)"></ellipse><ellipse cx="50" cy="20" rx="34" ry="5" fill="#fde68a"></ellipse><circle cx="50" cy="20" r="6" fill="#dc2626" filter="url(#drop-shadow)"></circle><circle cx="48" cy="18" r="2" fill="#fca5a5"></circle><path d="M 5 65 Q 50 78 95 65 Q 50 88 5 65 Z" fill="#1d4ed8" filter="url(#drop-shadow)"></path><path d="M 12 66 Q 50 77 88 66" fill="none" stroke="#93c5fd" stroke-width="1.5" opacity="0.3"></path></svg>