<?xml version="1.0" encoding="UTF-8"?>
<svg viewBox="0 0 100 100" class="w-full h-full drop-shadow-xl" xmlns="http://www.w3.org/2000/svg"><defs><filter id="drop-shadow" x="-20%" y="-20%" width="140%" height="140%"><feDropShadow dx="0" dy="4" stdDeviation="6" flood-color="#000000" flood-opacity="0.4"></feDropShadow></filter><filter id="glow" x="-20%" y="-20%" width="140%" height="140%"><feGaussianBlur stdDeviation="4" result="blur"></feGaussianBlur><feComposite in="SourceGraphic" in2="blur" operator="over"></feComposite></filter><linearGradient id="human-skin" x1="0%" y1="0%" x2="100%" y2="100%"><stop offset="0%" stop-color="#ffedd5"></stop><stop offset="100%" stop-color="#fdba74"></stop></linearGradient><linearGradient id="human-jacket" x1="0%" y1="0%" x2="100%" y2="100%"><stop offset="0%" stop-color="#ef4444"></stop><stop offset="100%" stop-color="#b91c1c"></stop></linearGradient><linearGradient id="human-pants" x1="0%" y1="0%" x2="100%" y2="100%"><stop offset="0%" stop-color="#3b82f6"></stop><stop offset="100%" stop-color="#1e40af"></stop></linearGradient><linearGradient id="human-hair" x1="0%" y1="0%" x2="0%" y2="100%"><stop offset="0%" stop-color="#fde047"></stop><stop offset="100%" stop-color="#d97706"></stop></linearGradient><linearGradient id="plat-green" x1="0%" y1="0%" x2="0%" y2="100%"><stop offset="0%" stop-color="#22c55e"></stop><stop offset="100%" stop-color="#14532d"></stop></linearGradient><linearGradient id="plat-blue" x1="0%" y1="0%" x2="0%" y2="100%"><stop offset="0%" stop-color="#3b82f6"></stop><stop offset="100%" stop-color="#1e3a8a"></stop></linearGradient><linearGradient id="plat-brown" x1="0%" y1="0%" x2="0%" y2="100%"><stop offset="0%" stop-color="#d97706"></stop><stop offset="100%" stop-color="#78350f"></stop></linearGradient><linearGradient id="metal" x1="0%" y1="0%" x2="100%" y2="100%"><stop offset="0%" stop-color="#f3f4f6"></stop><stop offset="50%" stop-color="#9ca3af"></stop><stop offset="100%" stop-color="#374151"></stop></linearGradient><linearGradient id="flame" x1="0%" y1="100%" x2="0%" y2="0%"><stop offset="0%" stop-color="#ef4444"></stop><stop offset="50%" stop-color="#f97316"></stop><stop offset="100%" stop-color="#fef08a"></stop></linearGradient><linearGradient id="ufo-glass" x1="0%" y1="0%" x2="0%" y2="100%"><stop offset="0%" stop-color="#93c5fd" stop-opacity="0.8"></stop><stop offset="100%" stop-color="#3b82f6" stop-opacity="0.3"></stop></linearGradient><radialGradient id="ufo-glow"><stop offset="0%" stop-color="#06b6d4"></stop><stop offset="100%" stop-color="#164e63"></stop></radialGradient></defs><rect x="20" y="80" width="60" height="12" rx="4" fill="url(#metal)" filter="url(#drop-shadow)"></rect><rect x="23" y="82" width="54" height="4" rx="2" fill="#f9fafb" opacity="0.7"></rect><rect x="20" y="88" width="60" height="4" fill="#374151" opacity="0.5"></rect><path d="M 30 80 L 70 75 L 30 70 L 70 65 L 30 60" fill="none" stroke="url(#metal)" stroke-width="8" stroke-linecap="round" stroke-linejoin="round" filter="url(#drop-shadow)"></path><path d="M 30 80 L 70 75 L 30 70 L 70 65 L 30 60" fill="none" stroke="#ffffff" stroke-width="2" stroke-linecap="round" stroke-linejoin="round" opacity="0.4"></path><g transform="translate(0, 46)"><rect x="23" y="0" width="54" height="14" rx="5" fill="#dc2626" filter="url(#drop-shadow)"></rect><rect x="28" y="2" width="44" height="5" rx="2.5" fill="#fca5a5" opacity="0.9"></rect><path d="M 23 9 L 77 9" stroke="#7f1d1d" stroke-width="2" stroke-linecap="round" opacity="0.6"></path></g></svg>