<?xml version="1.0" encoding="UTF-8"?>
<svg viewBox="0 0 100 100" class="w-full h-full drop-shadow-xl" xmlns="http://www.w3.org/2000/svg"><defs><filter id="drop-shadow" x="-20%" y="-20%" width="140%" height="140%"><feDropShadow dx="0" dy="4" stdDeviation="6" flood-color="#000000" flood-opacity="0.4"></feDropShadow></filter><filter id="glow" x="-20%" y="-20%" width="140%" height="140%"><feGaussianBlur stdDeviation="4" result="blur"></feGaussianBlur><feComposite in="SourceGraphic" in2="blur" operator="over"></feComposite></filter><linearGradient id="human-skin" x1="0%" y1="0%" x2="100%" y2="100%"><stop offset="0%" stop-color="#ffedd5"></stop><stop offset="100%" stop-color="#fdba74"></stop></linearGradient><linearGradient id="human-jacket" x1="0%" y1="0%" x2="100%" y2="100%"><stop offset="0%" stop-color="#ef4444"></stop><stop offset="100%" stop-color="#b91c1c"></stop></linearGradient><linearGradient id="human-pants" x1="0%" y1="0%" x2="100%" y2="100%"><stop offset="0%" stop-color="#3b82f6"></stop><stop offset="100%" stop-color="#1e40af"></stop></linearGradient><linearGradient id="human-hair" x1="0%" y1="0%" x2="0%" y2="100%"><stop offset="0%" stop-color="#fde047"></stop><stop offset="100%" stop-color="#d97706"></stop></linearGradient><linearGradient id="plat-green" x1="0%" y1="0%" x2="0%" y2="100%"><stop offset="0%" stop-color="#22c55e"></stop><stop offset="100%" stop-color="#14532d"></stop></linearGradient><linearGradient id="plat-blue" x1="0%" y1="0%" x2="0%" y2="100%"><stop offset="0%" stop-color="#3b82f6"></stop><stop offset="100%" stop-color="#1e3a8a"></stop></linearGradient><linearGradient id="plat-brown" x1="0%" y1="0%" x2="0%" y2="100%"><stop offset="0%" stop-color="#d97706"></stop><stop offset="100%" stop-color="#78350f"></stop></linearGradient><linearGradient id="metal" x1="0%" y1="0%" x2="100%" y2="100%"><stop offset="0%" stop-color="#f3f4f6"></stop><stop offset="50%" stop-color="#9ca3af"></stop><stop offset="100%" stop-color="#374151"></stop></linearGradient><linearGradient id="flame" x1="0%" y1="100%" x2="0%" y2="0%"><stop offset="0%" stop-color="#ef4444"></stop><stop offset="50%" stop-color="#f97316"></stop><stop offset="100%" stop-color="#fef08a"></stop></linearGradient><linearGradient id="ufo-glass" x1="0%" y1="0%" x2="0%" y2="100%"><stop offset="0%" stop-color="#93c5fd" stop-opacity="0.8"></stop><stop offset="100%" stop-color="#3b82f6" stop-opacity="0.3"></stop></linearGradient><radialGradient id="ufo-glow"><stop offset="0%" stop-color="#06b6d4"></stop><stop offset="100%" stop-color="#164e63"></stop></radialGradient></defs><path d="M 25 80 L 15 95" stroke="url(#metal)" stroke-width="6" stroke-linecap="round" filter="url(#drop-shadow)"></path><path d="M 75 80 L 85 95" stroke="url(#metal)" stroke-width="6" stroke-linecap="round" filter="url(#drop-shadow)"></path><rect x="10" y="92" width="10" height="6" rx="2" fill="#1e293b"></rect><rect x="80" y="92" width="10" height="6" rx="2" fill="#1e293b"></rect><ellipse cx="50" cy="80" rx="40" ry="12" fill="url(#metal)" filter="url(#drop-shadow)"></ellipse><ellipse cx="50" cy="78" rx="36" ry="10" fill="#1e293b"></ellipse><path d="M 16 78 Q 50 105 84 78 Q 50 85 16 78 Z" fill="#3b82f6" opacity="0.9"></path><path d="M 40 70 L 40 50 M 50 68 L 50 40 M 60 70 L 60 50" stroke="#60a5fa" stroke-width="2" stroke-linecap="round" opacity="0.8" filter="url(#glow)"></path><path d="M 12 80 A 40 12 0 0 0 88 80" fill="none" stroke="#ffffff" stroke-width="2" opacity="0.5"></path></svg>