<?xml version="1.0" encoding="UTF-8"?>
<svg viewBox="0 0 100 100" class="w-full h-full drop-shadow-2xl" xmlns="http://www.w3.org/2000/svg"><defs><filter id="drop-shadow" x="-20%" y="-20%" width="140%" height="140%"><feDropShadow dx="0" dy="4" stdDeviation="6" flood-color="#000000" flood-opacity="0.4"></feDropShadow></filter><filter id="glow" x="-20%" y="-20%" width="140%" height="140%"><feGaussianBlur stdDeviation="4" result="blur"></feGaussianBlur><feComposite in="SourceGraphic" in2="blur" operator="over"></feComposite></filter><linearGradient id="human-skin" x1="0%" y1="0%" x2="100%" y2="100%"><stop offset="0%" stop-color="#ffedd5"></stop><stop offset="100%" stop-color="#fdba74"></stop></linearGradient><linearGradient id="human-jacket" x1="0%" y1="0%" x2="100%" y2="100%"><stop offset="0%" stop-color="#ef4444"></stop><stop offset="100%" stop-color="#b91c1c"></stop></linearGradient><linearGradient id="human-pants" x1="0%" y1="0%" x2="100%" y2="100%"><stop offset="0%" stop-color="#3b82f6"></stop><stop offset="100%" stop-color="#1e40af"></stop></linearGradient><linearGradient id="human-hair" x1="0%" y1="0%" x2="0%" y2="100%"><stop offset="0%" stop-color="#fde047"></stop><stop offset="100%" stop-color="#d97706"></stop></linearGradient><linearGradient id="plat-green" x1="0%" y1="0%" x2="0%" y2="100%"><stop offset="0%" stop-color="#22c55e"></stop><stop offset="100%" stop-color="#14532d"></stop></linearGradient><linearGradient id="plat-blue" x1="0%" y1="0%" x2="0%" y2="100%"><stop offset="0%" stop-color="#3b82f6"></stop><stop offset="100%" stop-color="#1e3a8a"></stop></linearGradient><linearGradient id="plat-brown" x1="0%" y1="0%" x2="0%" y2="100%"><stop offset="0%" stop-color="#d97706"></stop><stop offset="100%" stop-color="#78350f"></stop></linearGradient><linearGradient id="metal" x1="0%" y1="0%" x2="100%" y2="100%"><stop offset="0%" stop-color="#f3f4f6"></stop><stop offset="50%" stop-color="#9ca3af"></stop><stop offset="100%" stop-color="#374151"></stop></linearGradient><linearGradient id="flame" x1="0%" y1="100%" x2="0%" y2="0%"><stop offset="0%" stop-color="#ef4444"></stop><stop offset="50%" stop-color="#f97316"></stop><stop offset="100%" stop-color="#fef08a"></stop></linearGradient><linearGradient id="ufo-glass" x1="0%" y1="0%" x2="0%" y2="100%"><stop offset="0%" stop-color="#93c5fd" stop-opacity="0.8"></stop><stop offset="100%" stop-color="#3b82f6" stop-opacity="0.3"></stop></linearGradient><radialGradient id="ufo-glow"><stop offset="0%" stop-color="#06b6d4"></stop><stop offset="100%" stop-color="#164e63"></stop></radialGradient></defs><polygon points="35,60 10,105 90,105 65,60" fill="url(#ufo-glow)" opacity="0.7" filter="url(#glow)"></polygon><path d="M 25 50 C 25 15 75 15 75 50 Z" fill="url(#ufo-glass)" filter="url(#drop-shadow)"></path><path d="M 32 46 C 32 22 68 22 68 46 Z" fill="#ffffff" opacity="0.3"></path><path d="M 42 50 Q 50 30 58 50 Z" fill="#84cc16" filter="url(#drop-shadow)"></path><circle cx="45" cy="42" r="2.5" fill="#111827"></circle><circle cx="55" cy="42" r="2.5" fill="#111827"></circle><ellipse cx="50" cy="47" rx="3" ry="1.5" fill="#3f6212"></ellipse><ellipse cx="50" cy="55" rx="45" ry="14" fill="url(#metal)" filter="url(#drop-shadow)"></ellipse><ellipse cx="50" cy="52" rx="42" ry="11" fill="#e5e7eb" opacity="0.6"></ellipse><ellipse cx="50" cy="62" rx="30" ry="8" fill="#1f2937"></ellipse><circle cx="15" cy="55" r="3" fill="#22d3ee" filter="url(#glow)"></circle><circle cx="32" cy="59" r="3" fill="#fcd34d" filter="url(#glow)"></circle><circle cx="50" cy="61" r="3" fill="#f43f5e" filter="url(#glow)"></circle><circle cx="68" cy="59" r="3" fill="#fcd34d" filter="url(#glow)"></circle><circle cx="85" cy="55" r="3" fill="#22d3ee" filter="url(#glow)"></circle></svg>